<?xml version="1.0" encoding="UTF-8"?>
<svg id="Layer_2" data-name="Layer 2" xmlns="http://www.w3.org/2000/svg" viewBox="0 0 1795.45 587.99">
  <g id="Layer_1-2" data-name="Layer 1">
    <g>
      <g>
        <path d="M104.92,575.45c-37.44-15.53-67.42-43.83-85.45-79.46-12.32-24.35-17.22-50.41-18.44-77.57l99.54.07c1.46,16.9,6.07,32.1,16.86,45.1,11.74,14.14,29.24,24.01,48.26,23.99l112.18-.15c25.52-.03,47.01-17.18,57.33-40.03,12.8-28.33,9.16-64.32-13.38-87l-163.98-165.06c-8.04-8.1-11.58-17.85-7.39-29.16,3.03-8.17,11.56-16.43,22.57-16.45l73.9-.13c5.16,0,10.32,2.23,14.12,6.04l131.87,132.54c21.94,22.05,37.55,47.88,44.24,78.34,7.58,34.48,7.14,69.61-3.4,103.17-21.03,66.95-85.17,118.48-155.23,118.29l-117.4-.31c-19.58-.05-37.43-4.44-56.22-12.23Z"/>
        <path d="M103.59,150.16c-10.87,33.63.79,63.75,24.15,87.08l154.15,153.93c5.29,5.28,8.3,9.77,9.83,17.35,2.48,12.32-5.54,29.13-19.81,29.2l-79.19.41c-4.95.03-9.92-4.15-13.57-7.81L43.82,294.58c-16.45-16.5-28-35.42-34.82-57.81-11.39-37.38-12.25-77.5-.95-115.28C28.16,54.21,88.76,3.83,159.69,1.11c41.05-1.57,80.47-1.3,121.36-.25,72.48,1.86,134.27,52.98,153.57,121.78,4.52,16.1,6.06,30.83,6.96,47.82l-100.41-.03c-2.06-36.68-24.49-65.83-61.32-70.11l-116.16.63c-28.63.15-51.64,23.05-60.1,49.21Z"/>
      </g>
      <g>
        <path d="M1537.25,401.78c-.52-34.83,18.25-62.99,50.42-73.98,37.32-12.75,62.75-10.91,101.94-17.63,6.66-1.14,16.41-6.44,19.51-11.89,9.23-16.21-.16-34.93-17.06-41.15-16.92-6.24-35.44-4.49-52.28.67-13.88,6.11-21.62,17.42-20.95,34.35l-70.95.05c.38-25.3,9.67-49.98,30.08-65.67,9.3-7.15,20.52-14.21,32.19-17.75,39.94-12.12,83.45-12.05,122.4,1.75,31.96,11.32,51.98,38.54,52.25,72.41l1.11,141.65c.14,17.2,3.23,31.65,9.53,49.51l-72.35.24c-3.78-10.74-5.25-19.44-6.77-30.99-26.42,40.99-90.06,44.09-128.23,30.4-31.92-11.45-50.34-37.8-50.85-71.96ZM1712.24,382.73c1.01-11.17.69-22.66.39-33.85-32.04,12.2-48.81,7.58-79.45,16.78-14.63,4.4-23.69,18.23-23.24,32,.47,14.45,10.05,26.69,25.37,29.98,35.23,7.58,73.52-7.23,76.93-44.92Z"/>
        <path d="M631.68,421.09c16.01-5.54,27.15-14.92,33.58-30.99l71.9-.04c-8.72,37.9-33.43,64.87-67.57,79.78-23.13,10.1-47.25,11.81-72.87,10.67-58.02-2.6-106.59-40.4-120.47-97.12-16.61-67.87,6.02-146.12,76.17-173.2,35.47-13.69,75.38-13.51,110.61.14,60.87,23.61,82.94,88.8,78.81,150.39l-196.88.07c1.61,17.05,5.83,33.59,18.3,45.51,17.76,16.97,44.8,22.98,68.41,14.8ZM666.82,311.82c-1.34-37.54-29.36-58.08-62.24-56.58-31.95,1.13-58.36,24.44-59.25,56.83l121.48-.25Z"/>
        <path d="M931.97,272.67c-19.65-15.88-50.31-13.44-68.12,2.86-12.42,11.37-18.49,28.62-18.57,45.57l-.7,153.15-72.61-.04-.12-267.64,70.65.11.43,36.32c12.1-17.26,27.38-31.36,48.27-37.53,45.56-13.46,103.44-.99,122.01,48.12,6.38,16.88,8.2,34.72,8.71,53.27l-.07,167.29-73.69.23-.47-162.64c-.04-13.72-4.18-29.71-15.73-39.04Z"/>
        <path d="M1208.61,473.22l-30.32,2.69c-37.64,3.34-86.32-6.9-94.24-50.84-2.48-13.76-3.09-27.97-3.08-42.38l.06-122.03-39.94-.86-.3-53.12,40.06-.26.15-77.56,73.6-.05.14,77.58,52.65.19-.13,53.47-52.65.53.43,131.52c.05,15.02,11.08,25.17,25.17,25.32l28.33.31.04,55.49Z"/>
        <path d="M1310.11,341.63l-.27,132.74-73.43-.19-.38-267.59,71.49.02,1.05,45.42c18.51-41.49,54.3-55.32,97.92-48.46l.14,65.63c-31.6-2.41-71.1-.83-87.07,31.11-5.97,11.94-9.43,26.43-9.46,41.31Z"/>
        <polygon points="1508.3 473.69 1433.66 474.46 1433.39 206.59 1508.25 206.57 1508.3 473.69"/>
        <polygon points="1508.37 174.16 1433.59 174.4 1433.31 107.08 1508.23 106.94 1508.37 174.16"/>
      </g>
    </g>
  </g>
</svg>