<?xml version="1.0" encoding="UTF-8"?>
<svg id="Layer_2" data-name="Layer 2" xmlns="http://www.w3.org/2000/svg" viewBox="0 0 442.34 587.99">
  <g id="Layer_1-2" data-name="Layer 1">
    <g>
      <path d="M104.92,575.45c-37.44-15.53-67.42-43.83-85.45-79.46-12.32-24.35-17.22-50.41-18.44-77.57l99.54.07c1.46,16.9,6.07,32.1,16.86,45.1,11.74,14.14,29.24,24.01,48.26,23.99l112.18-.15c25.52-.03,47.01-17.18,57.33-40.03,12.8-28.33,9.16-64.32-13.38-87l-163.98-165.06c-8.04-8.1-11.58-17.85-7.39-29.16,3.03-8.17,11.56-16.43,22.57-16.45l73.9-.13c5.16,0,10.32,2.23,14.12,6.04l131.87,132.54c21.94,22.05,37.55,47.88,44.24,78.34,7.58,34.48,7.14,69.61-3.4,103.17-21.03,66.95-85.17,118.48-155.23,118.29l-117.4-.31c-19.58-.05-37.43-4.44-56.22-12.23Z"/>
      <path d="M103.59,150.16c-10.87,33.63.79,63.75,24.15,87.08l154.15,153.93c5.29,5.28,8.3,9.77,9.83,17.35,2.48,12.32-5.54,29.13-19.81,29.2l-79.19.41c-4.95.03-9.92-4.15-13.57-7.81L43.82,294.58c-16.45-16.5-28-35.42-34.82-57.81-11.39-37.38-12.25-77.5-.95-115.28C28.16,54.21,88.76,3.83,159.69,1.11c41.05-1.57,80.47-1.3,121.36-.25,72.48,1.86,134.27,52.98,153.57,121.78,4.52,16.1,6.06,30.83,6.96,47.82l-100.41-.03c-2.06-36.68-24.49-65.83-61.32-70.11l-116.16.63c-28.63.15-51.64,23.05-60.1,49.21Z"/>
    </g>
  </g>
</svg>